<?xml version="1.0" encoding="UTF-8"?>
<svg width="244px" height="76px" viewBox="0 0 244 76" version="1.1" xmlns="http://www.w3.org/2000/svg" xmlns:xlink="http://www.w3.org/1999/xlink">
    <!-- Generator: Sketch 61 (89581) - https://sketch.com -->
    <title>logo</title>
    <desc>Created with Sketch.</desc>
    <g id="Page-1" stroke="none" stroke-width="1" fill="none" fill-rule="evenodd">
        <g id="logo" fill-rule="nonzero">
            <g id="Group" transform="translate(26.000000, 0.000000)">
                <path d="M32.6,2.7 C27.7,8.7 22.7,14.7 17.8,20.7 C17.1,21.6 16.7,22.3 16.5,23 C16.5,23.2 16.4,23.5 16.5,23.7 C16.6,24.4 17,25.2 17.8,26.1 C17.8,26.1 6.4,15.9 11.2,9.5 C11.2,9.5 11.2,9.5 11.2,9.5 C13.1,7.2 15,4.9 16.8,2.6 C17.8,1.3 19.2,0.7 20.9,0.6 C24.5,0.6 28.1,0.6 31.7,0.6 C32.3,0.6 32.9,0.6 33.1,1.2 C33.3,1.8 33,2.2 32.6,2.7 Z" id="Path" fill="#1768C9"></path>
                <path d="M32.4,46.2 L20.3,46.2 C17.1,45.5 15.7,42.7 13.8,40.5 C9.9,35.8 6,31 2,26.3 C1.3,25.5 0.6,24.7 0.6,23.5 C0.6,22.7 0.8,22 1.3,21.4 C4.1,18 6.9,14.5 9.7,11.1 C9.7,11.1 9.7,11 9.8,11 L9.8,11 C10.2,10.5 10.6,10 11.1,9.5 C6.3,15.9 17.7,26.1 17.7,26.1 C22.6,32.1 27.5,38 32.4,44 C33.3,45.1 33.3,45.4 32.4,46.2 Z" id="Path" fill="#2873EF"></path>
            </g>
            <g id="Group" transform="translate(0.000000, 29.000000)">
                <path d="M22.1,37.3 C22.1,37.4 22.1,37.4 22.1,37.3 C20.2,39.6 18.3,41.9 16.5,44.2 C15.5,45.5 14.1,46.1 12.4,46.2 C8.8,46.2 5.2,46.2 1.6,46.2 C1,46.2 0.4,46.2 0.2,45.6 C-2.77555756e-16,45 0.3,44.6 0.7,44.2 C5.6,38.2 10.6,32.2 15.5,26.2 C16.2,25.3 16.6,24.6 16.8,23.9 C16.8,23.7 16.9,23.4 16.8,23.2 C16.7,22.5 16.3,21.7 15.5,20.8 C15.5,20.7 27,30.9 22.1,37.3 Z" id="Path" fill="#1768C9"></path>
                <path d="M32.6,23.3 C32.6,24.1 32.4,24.8 31.9,25.4 C29.1,28.8 26.3,32.3 23.5,35.7 C23.5,35.7 23.5,35.8 23.4,35.8 L23.4,35.8 C23,36.3 22.6,36.8 22.1,37.3 C26.9,30.9 15.5,20.7 15.5,20.7 C10.6,14.7 5.7,8.8 0.8,2.8 C0,1.7 0,1.4 0.9,0.6 L13,0.6 C16.2,1.3 17.6,4.1 19.5,6.3 C23.5,11 27.4,15.8 31.3,20.6 C31.9,21.4 32.7,22.1 32.6,23.3 Z" id="Path" fill="#2873EF"></path>
            </g>
            <g id="Group" transform="translate(79.000000, 0.000000)" fill="#2873EF">
                <path d="M14.2,32.9 C12,32.9 10.1,32.6 8.3,31.9 C6.6,31.2 5.1,30.2 3.8,28.8 C2.6,27.4 1.6,25.7 1,23.7 C0.3,21.7 0,19.3 0,16.6 C0,16.1 0,15.7 0,15.2 C0,14.7 0.1,14.3 0.1,13.8 L20.2,13.8 C19.9,11.4 19.2,9.6 18,8.5 C16.8,7.4 15.3,6.9 13.2,6.9 C11.7,6.9 10.5,7.2 9.4,7.8 C8.3,8.4 7.4,9.1 6.6,9.8 L2.8,4.1 C4.1,2.9 5.7,2 7.6,1.2 C9.5,0.5 11.7,0.1 14.3,0.1 C16.4,0.1 18.3,0.4 20,1.1 C21.7,1.8 23.3,2.8 24.5,4.2 C25.8,5.6 26.8,7.3 27.5,9.3 C28.2,11.3 28.6,13.7 28.6,16.4 C28.6,19.1 28.3,21.5 27.6,23.5 C26.9,25.6 25.9,27.3 24.7,28.7 C23.4,30.1 21.9,31.1 20.1,31.8 C18.4,32.5 16.4,32.9 14.2,32.9 Z M14.2,26.1 C15.7,26.1 17,25.6 18.1,24.7 C19.2,23.7 19.9,22.1 20.2,19.9 L8.6,19.9 C8.8,22.2 9.4,23.9 10.3,24.8 C11.3,25.6 12.6,26.1 14.2,26.1 Z" id="Shape"></path>
                <path d="M34.3,32.3 L34.3,0.7 L43.6,0.7 C46,0.7 48.2,1 50.2,1.6 C52.2,2.2 53.9,3.1 55.3,4.4 C56.7,5.7 57.8,7.3 58.6,9.3 C59.4,11.3 59.8,13.7 59.8,16.4 C59.8,19.1 59.4,21.6 58.6,23.6 C57.8,25.6 56.7,27.3 55.3,28.6 C53.9,29.9 52.2,30.9 50.3,31.5 C48.4,32.1 46.3,32.4 44,32.4 L34.3,32.4 L34.3,32.3 Z M42.7,25.6 L43.2,25.6 C44.3,25.6 45.4,25.5 46.4,25.2 C47.4,24.9 48.3,24.4 49,23.8 C49.7,23.1 50.3,22.2 50.7,21 C51.1,19.8 51.3,18.3 51.3,16.4 C51.3,14.6 51.1,13 50.7,11.9 C50.3,10.7 49.7,9.8 49,9.2 C48.3,8.6 47.4,8.1 46.4,7.9 C45.4,7.7 44.3,7.5 43.2,7.5 L42.7,7.5 L42.7,25.6 L42.7,25.6 Z" id="Shape"></path>
                <path d="M70.4,32.3 L61.1,0.7 L69.9,0.7 L73.2,14.5 C73.7,16.2 74,17.8 74.4,19.5 C74.7,21.1 75.1,22.8 75.6,24.5 L75.8,24.5 C76.3,22.8 76.6,21.1 77,19.5 C77.3,17.9 77.7,16.2 78.1,14.5 L81.3,0.7 L89.9,0.7 L80.6,32.3 L70.4,32.3 Z" id="Path"></path>
            </g>
            <g id="Group" transform="translate(78.000000, 32.000000)" fill="#003768">
                <path d="M16.8,43.7 C14.6,43.7 12.5,43.4 10.6,42.7 C8.7,42 7,41 5.5,39.7 C4.1,38.4 2.9,36.7 2.1,34.6 C1.3,32.6 0.9,30.2 0.9,27.5 C0.9,24.8 1.3,22.5 2.2,20.4 C3.1,18.3 4.2,16.6 5.6,15.2 C7,13.8 8.7,12.7 10.6,12 C12.5,11.3 14.5,10.9 16.6,10.9 C18.9,10.9 21,11.3 22.7,12.1 C24.4,12.9 25.8,13.9 27,15 L22.6,20.4 C21.8,19.7 21,19.2 20.1,18.7 C19.2,18.3 18.2,18 16.9,18 C15.8,18 14.8,18.2 13.9,18.6 C13,19 12.2,19.6 11.5,20.4 C10.8,21.2 10.3,22.1 9.9,23.3 C9.5,24.4 9.3,25.7 9.3,27.1 C9.3,30.1 10,32.4 11.3,34 C12.6,35.6 14.7,36.4 17.6,36.4 C18.1,36.4 18.5,36.4 18.9,36.3 C19.3,36.2 19.7,36.1 20,35.9 L20,31.5 L15.3,31.5 L15.3,24.7 L27.4,24.7 L27.4,39.8 C26.3,40.9 24.8,41.8 22.9,42.5 C21.1,43.4 19,43.7 16.8,43.7 Z" id="Path"></path>
                <polygon id="Path" points="33.6 43.2 33.6 11.5 54 11.5 54 18.5 42 18.5 42 23.5 52.3 23.5 52.3 30.5 42 30.5 42 36.1 54.6 36.1 54.6 43.1 33.6 43.1"></polygon>
                <path d="M60.7,43.2 L60.7,11.5 L72.7,11.5 C74.4,11.5 76,11.7 77.5,12 C79,12.3 80.4,12.9 81.5,13.7 C82.7,14.5 83.6,15.5 84.2,16.8 C84.9,18.1 85.2,19.8 85.2,21.7 C85.2,24 84.7,25.9 83.8,27.3 C82.9,28.8 81.6,30 80.1,30.8 L87,43.1 L77.7,43.1 L72.2,32.5 L69,32.5 L69,43.1 L60.7,43.1 L60.7,43.2 Z M69.1,25.9 L72.1,25.9 C75.5,25.9 77.2,24.5 77.2,21.7 C77.2,20.3 76.8,19.4 75.9,18.9 C75,18.4 73.8,18.1 72.1,18.1 L69.1,18.1 L69.1,25.9 L69.1,25.9 Z" id="Shape"></path>
                <path d="M95.6,9.3 C94.2,9.3 93.1,8.9 92.2,8.1 C91.3,7.3 90.9,6.3 90.9,5.1 C90.9,3.9 91.3,2.9 92.2,2.1 C93.1,1.3 94.2,0.9 95.6,0.9 C97,0.9 98.1,1.3 99,2.1 C99.9,2.9 100.3,3.9 100.3,5.1 C100.3,6.3 99.9,7.3 99,8.1 C98,8.9 96.9,9.3 95.6,9.3 Z M91.4,43.2 L91.4,11.5 L99.8,11.5 L99.8,43.1 L91.4,43.1 L91.4,43.2 Z" id="Shape"></path>
                <path d="M112.5,43.2 L122.1,11.6 L132.2,11.6 L141.8,43.2 L133,43.2 L131.4,36.5 L122.5,36.5 L120.9,43.2 L112.5,43.2 Z M124.7,27.8 L124.2,30 L130,30 L129.5,27.8 C129.1,26.3 128.7,24.6 128.3,22.8 C127.9,21 127.5,19.3 127.1,17.7 L126.9,17.7 C126.5,19.3 126.2,21 125.8,22.8 C125.4,24.6 125.1,26.3 124.7,27.8 Z" id="Shape"></path>
                <polygon id="Path" points="144.9 43.2 144.9 11.5 153.3 11.5 153.3 36.1 165.3 36.1 165.3 43.1 144.9 43.1"></polygon>
            </g>
            <g id="Group" transform="translate(26.000000, 0.000000)">
                <path d="M32.6,2.7 C27.7,8.7 22.7,14.7 17.8,20.7 C17.1,21.6 16.7,22.3 16.5,23 C16.5,23.2 16.4,23.5 16.5,23.7 C16.6,24.4 17,25.2 17.8,26.1 C17.8,26.1 6.4,15.9 11.2,9.5 C11.2,9.5 11.2,9.5 11.2,9.5 C13.1,7.2 15,4.9 16.8,2.6 C17.8,1.3 19.2,0.7 20.9,0.6 C24.5,0.6 28.1,0.6 31.7,0.6 C32.3,0.6 32.9,0.6 33.1,1.2 C33.3,1.8 33,2.2 32.6,2.7 Z" id="Path" fill="#1768C9"></path>
                <path d="M32.4,46.2 L20.3,46.2 C17.1,45.5 15.7,42.7 13.8,40.5 C9.9,35.8 6,31 2,26.3 C1.3,25.5 0.6,24.7 0.6,23.5 C0.6,22.7 0.8,22 1.3,21.4 C4.1,18 6.9,14.5 9.7,11.1 C9.7,11.1 9.7,11 9.8,11 L9.8,11 C10.2,10.5 10.6,10 11.1,9.5 C6.3,15.9 17.7,26.1 17.7,26.1 C22.6,32.1 27.5,38 32.4,44 C33.3,45.1 33.3,45.4 32.4,46.2 Z" id="Path" fill="#2873EF"></path>
            </g>
            <g id="Group" transform="translate(0.000000, 29.000000)">
                <path d="M22.1,37.3 C22.1,37.4 22.1,37.4 22.1,37.3 C20.2,39.6 18.3,41.9 16.5,44.2 C15.5,45.5 14.1,46.1 12.4,46.2 C8.8,46.2 5.2,46.2 1.6,46.2 C1,46.2 0.4,46.2 0.2,45.6 C-2.77555756e-16,45 0.3,44.6 0.7,44.2 C5.6,38.2 10.6,32.2 15.5,26.2 C16.2,25.3 16.6,24.6 16.8,23.9 C16.8,23.7 16.9,23.4 16.8,23.2 C16.7,22.5 16.3,21.7 15.5,20.8 C15.5,20.7 27,30.9 22.1,37.3 Z" id="Path" fill="#1768C9"></path>
                <path d="M32.6,23.3 C32.6,24.1 32.4,24.8 31.9,25.4 C29.1,28.8 26.3,32.3 23.5,35.7 C23.5,35.7 23.5,35.8 23.4,35.8 L23.4,35.8 C23,36.3 22.6,36.8 22.1,37.3 C26.9,30.9 15.5,20.7 15.5,20.7 C10.6,14.7 5.7,8.8 0.8,2.8 C0,1.7 0,1.4 0.9,0.6 L13,0.6 C16.2,1.3 17.6,4.1 19.5,6.3 C23.5,11 27.4,15.8 31.3,20.6 C31.9,21.4 32.7,22.1 32.6,23.3 Z" id="Path" fill="#2873EF"></path>
            </g>
            <g id="Group" transform="translate(79.000000, 0.000000)" fill="#2873EF">
                <path d="M14.2,32.9 C12,32.9 10.1,32.6 8.3,31.9 C6.6,31.2 5.1,30.2 3.8,28.8 C2.6,27.4 1.6,25.7 1,23.7 C0.3,21.7 0,19.3 0,16.6 C0,16.1 0,15.7 0,15.2 C0,14.7 0.1,14.3 0.1,13.8 L20.2,13.8 C19.9,11.4 19.2,9.6 18,8.5 C16.8,7.4 15.3,6.9 13.2,6.9 C11.7,6.9 10.5,7.2 9.4,7.8 C8.3,8.4 7.4,9.1 6.6,9.8 L2.8,4.1 C4.1,2.9 5.7,2 7.6,1.2 C9.5,0.5 11.7,0.1 14.3,0.1 C16.4,0.1 18.3,0.4 20,1.1 C21.7,1.8 23.3,2.8 24.5,4.2 C25.8,5.6 26.8,7.3 27.5,9.3 C28.2,11.3 28.6,13.7 28.6,16.4 C28.6,19.1 28.3,21.5 27.6,23.5 C26.9,25.6 25.9,27.3 24.7,28.7 C23.4,30.1 21.9,31.1 20.1,31.8 C18.4,32.5 16.4,32.9 14.2,32.9 Z M14.2,26.1 C15.7,26.1 17,25.6 18.1,24.7 C19.2,23.7 19.9,22.1 20.2,19.9 L8.6,19.9 C8.8,22.2 9.4,23.9 10.3,24.8 C11.3,25.6 12.6,26.1 14.2,26.1 Z" id="Shape"></path>
                <path d="M34.3,32.3 L34.3,0.7 L43.6,0.7 C46,0.7 48.2,1 50.2,1.6 C52.2,2.2 53.9,3.1 55.3,4.4 C56.7,5.7 57.8,7.3 58.6,9.3 C59.4,11.3 59.8,13.7 59.8,16.4 C59.8,19.1 59.4,21.6 58.6,23.6 C57.8,25.6 56.7,27.3 55.3,28.6 C53.9,29.9 52.2,30.9 50.3,31.5 C48.4,32.1 46.3,32.4 44,32.4 L34.3,32.4 L34.3,32.3 Z M42.7,25.6 L43.2,25.6 C44.3,25.6 45.4,25.5 46.4,25.2 C47.4,24.9 48.3,24.4 49,23.8 C49.7,23.1 50.3,22.2 50.7,21 C51.1,19.8 51.3,18.3 51.3,16.4 C51.3,14.6 51.1,13 50.7,11.9 C50.3,10.7 49.7,9.8 49,9.2 C48.3,8.6 47.4,8.1 46.4,7.9 C45.4,7.7 44.3,7.5 43.2,7.5 L42.7,7.5 L42.7,25.6 L42.7,25.6 Z" id="Shape"></path>
                <path d="M70.4,32.3 L61.1,0.7 L69.9,0.7 L73.2,14.5 C73.7,16.2 74,17.8 74.4,19.5 C74.7,21.1 75.1,22.8 75.6,24.5 L75.8,24.5 C76.3,22.8 76.6,21.1 77,19.5 C77.3,17.9 77.7,16.2 78.1,14.5 L81.3,0.7 L89.9,0.7 L80.6,32.3 L70.4,32.3 Z" id="Path"></path>
            </g>
            <g id="Group" transform="translate(78.000000, 32.000000)" fill="#003768">
                <path d="M16.8,43.7 C14.6,43.7 12.5,43.4 10.6,42.7 C8.7,42 7,41 5.5,39.7 C4.1,38.4 2.9,36.7 2.1,34.6 C1.3,32.6 0.9,30.2 0.9,27.5 C0.9,24.8 1.3,22.5 2.2,20.4 C3.1,18.3 4.2,16.6 5.6,15.2 C7,13.8 8.7,12.7 10.6,12 C12.5,11.3 14.5,10.9 16.6,10.9 C18.9,10.9 21,11.3 22.7,12.1 C24.4,12.9 25.8,13.9 27,15 L22.6,20.4 C21.8,19.7 21,19.2 20.1,18.7 C19.2,18.3 18.2,18 16.9,18 C15.8,18 14.8,18.2 13.9,18.6 C13,19 12.2,19.6 11.5,20.4 C10.8,21.2 10.3,22.1 9.9,23.3 C9.5,24.4 9.3,25.7 9.3,27.1 C9.3,30.1 10,32.4 11.3,34 C12.6,35.6 14.7,36.4 17.6,36.4 C18.1,36.4 18.5,36.4 18.9,36.3 C19.3,36.2 19.7,36.1 20,35.9 L20,31.5 L15.3,31.5 L15.3,24.7 L27.4,24.7 L27.4,39.8 C26.3,40.9 24.8,41.8 22.9,42.5 C21.1,43.4 19,43.7 16.8,43.7 Z" id="Path"></path>
                <polygon id="Path" points="33.6 43.2 33.6 11.5 54 11.5 54 18.5 42 18.5 42 23.5 52.3 23.5 52.3 30.5 42 30.5 42 36.1 54.6 36.1 54.6 43.1 33.6 43.1"></polygon>
                <path d="M60.7,43.2 L60.7,11.5 L72.7,11.5 C74.4,11.5 76,11.7 77.5,12 C79,12.3 80.4,12.9 81.5,13.7 C82.7,14.5 83.6,15.5 84.2,16.8 C84.9,18.1 85.2,19.8 85.2,21.7 C85.2,24 84.7,25.9 83.8,27.3 C82.9,28.8 81.6,30 80.1,30.8 L87,43.1 L77.7,43.1 L72.2,32.5 L69,32.5 L69,43.1 L60.7,43.1 L60.7,43.2 Z M69.1,25.9 L72.1,25.9 C75.5,25.9 77.2,24.5 77.2,21.7 C77.2,20.3 76.8,19.4 75.9,18.9 C75,18.4 73.8,18.1 72.1,18.1 L69.1,18.1 L69.1,25.9 L69.1,25.9 Z" id="Shape"></path>
                <path d="M95.6,9.3 C94.2,9.3 93.1,8.9 92.2,8.1 C91.3,7.3 90.9,6.3 90.9,5.1 C90.9,3.9 91.3,2.9 92.2,2.1 C93.1,1.3 94.2,0.9 95.6,0.9 C97,0.9 98.1,1.3 99,2.1 C99.9,2.9 100.3,3.9 100.3,5.1 C100.3,6.3 99.9,7.3 99,8.1 C98,8.9 96.9,9.3 95.6,9.3 Z M91.4,43.2 L91.4,11.5 L99.8,11.5 L99.8,43.1 L91.4,43.1 L91.4,43.2 Z" id="Shape"></path>
                <path d="M112.5,43.2 L122.1,11.6 L132.2,11.6 L141.8,43.2 L133,43.2 L131.4,36.5 L122.5,36.5 L120.9,43.2 L112.5,43.2 Z M124.7,27.8 L124.2,30 L130,30 L129.5,27.8 C129.1,26.3 128.7,24.6 128.3,22.8 C127.9,21 127.5,19.3 127.1,17.7 L126.9,17.7 C126.5,19.3 126.2,21 125.8,22.8 C125.4,24.6 125.1,26.3 124.7,27.8 Z" id="Shape"></path>
                <polygon id="Path" points="144.9 43.2 144.9 11.5 153.3 11.5 153.3 36.1 165.3 36.1 165.3 43.1 144.9 43.1"></polygon>
            </g>
        </g>
    </g>
</svg>